<svg id="Layer_1" data-name="Layer 1" xmlns="http://www.w3.org/2000/svg" xmlns:xlink="http://www.w3.org/1999/xlink" viewBox="0 0 283.46457 122.57858"><defs><radialGradient id="radial-gradient" cx="0.6342" cy="21.92241" r="61.26828" gradientUnits="userSpaceOnUse"><stop offset="0" stop-color="#ff9400"/><stop offset="0.61173" stop-color="#ff2600"/><stop offset="0.69549" stop-color="#fb2500"/><stop offset="0.78418" stop-color="#ee2300"/><stop offset="0.87513" stop-color="#d91e00"/><stop offset="0.9671" stop-color="#bb1800"/><stop offset="1" stop-color="#af1600"/></radialGradient><radialGradient id="radial-gradient-2" cx="54.24755" cy="126.42301" r="128.13005" gradientUnits="userSpaceOnUse"><stop offset="0" stop-color="#af1600"/><stop offset="0.05752" stop-color="#bb1800"/><stop offset="0.2183" stop-color="#d91e00"/><stop offset="0.3773" stop-color="#ee2300"/><stop offset="0.53235" stop-color="#fb2500"/><stop offset="0.67877" stop-color="#ff2600"/><stop offset="1" stop-color="#ff9400"/></radialGradient></defs><path d="M0,22.98361,27.21862,77.42086a3.8306,3.8306,0,0,0,6.85239,0L45.96723,53.62843Z" fill="url(#radial-gradient)"/><path d="M77.51634,0A7.66137,7.66137,0,0,0,70.664,4.235L61.28964,22.98361,49.79782,45.96723l-3.83059,7.6612L34.071,77.42081a3.83042,3.83042,0,0,1-6.85234,0l3.42617,6.85244,19.153,38.306L99.59566,22.98361,111.08746,0Z" fill="url(#radial-gradient-2)"/><path d="M252.81975,30.64482H229.83614V72.36876l15.3224,3.77194V45.96723h7.66121a15.32241,15.32241,0,0,1,0,30.64482H227.92083L210.68311,30.64482h-19.153l1.76807,4.71463L179.529,66.83174a30.64,30.64,0,0,0-56.67017-20.86451h26.53469A15.3646,15.3646,0,1,1,139.03889,50.019l-16.21482-3.99161a30.61588,30.61588,0,0,0,.03472,30.58467H107.25686V30.64482h-7.6612L91.93445,45.96723V91.93445h38.306V85.20367a30.6332,30.6332,0,0,0,43.66826-5.5261L168.5465,91.93445h15.32241l6.70355-15.3224h18.19536l5.74591,15.3224h38.306a30.87391,30.87391,0,0,0,3.83059-.24689,30.47615,30.47615,0,0,0,12.88939-4.72167l.0395-.025q.52343-.34294,1.03187-.70746c.0425-.03067.08559-.0606.12809-.09128q.47763-.34452.94089-.70806c.05985-.04728.1203-.09427.18016-.14185q.44261-.35127.87086-.71824.10324-.08865.20589-.17836.4148-.36092.8158-.73515c.073-.06808.14485-.13811.21727-.20694.26036-.24839.51773-.50007.76911-.75744.07183-.07362.14186-.14933.21308-.2237.249-.25962.495-.52147.7344-.78932.064-.07182.12569-.14544.18854-.21771.243-.27727.48361-.55619.717-.842.0389-.04833.076-.09845.11492-.14709a30.72931,30.72931,0,0,0,2.20319-3.11281c.01855-.03052.0395-.06015.05806-.09083.15562-.25362.30226-.51369.45069-.77255.08918-.15562.18136-.30884.26814-.46641.12749-.23148.2472-.4679.3687-.70327.09816-.19.19811-.37857.29268-.57085.10953-.22415.21308-.45159.31722-.67814.097-.20993.19392-.41942.2861-.6319.09517-.2207.18555-.44441.27652-.6681.09038-.22326.18016-.44711.26575-.67336.0826-.22.1622-.44216.24061-.66466q.1239-.35375.24-.71016.10684-.32816.2053-.65988.11133-.37193.21248-.74772.08887-.32546.17118-.65389c.064-.25932.1227-.52028.18015-.78214.04729-.21547.09517-.43064.13827-.64791.05326-.272.09995-.54661.14664-.82148.03531-.211.073-.42137.10414-.63385.04309-.29178.07721-.58611.11193-.88044.02334-.199.05087-.397.07-.597.03232-.33009.05387-.66287.076-.996.01077-.16819.02693-.33518.03531-.50426.02454-.50337.03831-1.00957.03831-1.51907A30.6448,30.6448,0,0,0,252.81975,30.64482ZM196.058,64.07356l.00779-.01721-7.40863-1.80906H196.857l3.51279-8.0296,4.49976,11.99906Z"/><path d="M91.93445,100.65274h6.5421a9.56458,9.56458,0,0,1,4.49935,1.0217,7.45766,7.45766,0,0,1,3.02993,2.84616,8.584,8.584,0,0,1,0,8.3327,7.45414,7.45414,0,0,1-3.02993,2.84649,9.56064,9.56064,0,0,1-4.49935,1.02138h-6.5421Zm6.45038,14.59932a7.78689,7.78689,0,0,0,3.69561-.83793,6.08651,6.08651,0,0,0,2.45629-2.31823,7.09781,7.09781,0,0,0,0-6.81757,6.08939,6.08939,0,0,0-2.45629-2.31855,7.79445,7.79445,0,0,0-3.69561-.83793H93.63334v13.13021Z" fill="#ff2600"/><path d="M110.48377,100.65274h1.69888v16.06843h-1.69888Z" fill="#ff2600"/><path d="M128.322,108.687h1.62954v6.12889a7.84258,7.84258,0,0,1-2.66273,1.51512,9.892,9.892,0,0,1-3.23638.52795,8.88132,8.88132,0,0,1-4.3386-1.05589,7.78992,7.78992,0,0,1-3.02993-2.92671,8.51413,8.51413,0,0,1,0-8.3784,7.79516,7.79516,0,0,1,3.02993-2.927,8.93471,8.93471,0,0,1,4.36129-1.05589,9.415,9.415,0,0,1,3.37443.58547,6.70986,6.70986,0,0,1,2.594,1.73308l-1.05589,1.0789a6.60632,6.60632,0,0,0-4.84354-1.88232,7.2142,7.2142,0,0,0-3.52368.86094,6.32576,6.32576,0,0,0-2.46747,2.38726,6.91618,6.91618,0,0,0,0,6.80607,6.45388,6.45388,0,0,0,2.456,2.38725,7.07321,7.07321,0,0,0,3.51217.87213,7.00066,7.00066,0,0,0,4.20086-1.23932Z" fill="#ff2600"/><path d="M134.11535,100.65274h1.69888v16.06843h-1.69888Z" fill="#ff2600"/><path d="M143.81585,102.12185h-5.647v-1.46911h12.99248v1.46911h-5.647v14.59932h-1.69856Z" fill="#ff2600"/><path d="M161.98646,112.42858H153.0341l-1.92834,4.29259h-1.76727l7.34552-16.06843h1.67555l7.34552,16.06843h-1.7906Zm-.61966-1.37738-3.85668-8.63087-3.85636,8.63087Z" fill="#ff2600"/><path d="M168.03961,100.65274h1.69888v14.59932h8.99806v1.46911H168.03961Z" fill="#ff2600"/><path d="M190.24778,115.803a7.72961,7.72961,0,0,1-3.00692-2.92671,8.59243,8.59243,0,0,1,0-8.3784,7.71362,7.71362,0,0,1,3.01843-2.927,8.84106,8.84106,0,0,1,4.31559-1.05589,8.93948,8.93948,0,0,1,3.3054.597,6.85588,6.85588,0,0,1,2.571,1.74458l-1.0789,1.0789a6.40116,6.40116,0,0,0-4.7515-1.90533,6.97963,6.97963,0,0,0-3.46615.87245,6.37037,6.37037,0,0,0-2.44478,2.38725,6.9725,6.9725,0,0,0,0,6.79457,6.37037,6.37037,0,0,0,2.44478,2.38725,6.9794,6.9794,0,0,0,3.46615.87213,6.31422,6.31422,0,0,0,4.7515-1.928l1.0789,1.0789a6.94867,6.94867,0,0,1-2.58252,1.75609,8.87972,8.87972,0,0,1-3.31691.60816A8.76768,8.76768,0,0,1,190.24778,115.803Z" fill="#ff2600"/><path d="M214.21939,112.42858H205.267l-1.92834,4.29259h-1.76727l7.34552-16.06843h1.67555l7.34552,16.06843h-1.7906Zm-.61966-1.37738-3.85668-8.63087-3.85636,8.63087Z" fill="#ff2600"/><path d="M231.24464,116.72117l-3.6726-5.16472a11.69454,11.69454,0,0,1-1.28567.06871H221.9711v5.096h-1.69888V100.65274h6.01415a7.2585,7.2585,0,0,1,4.82053,1.46911,5.00035,5.00035,0,0,1,1.74458,4.04011,5.222,5.222,0,0,1-.95266,3.17917,5.27523,5.27523,0,0,1-2.71994,1.87082l3.92507,5.50922Zm-1.35438-7.598a4.14382,4.14382,0,0,0,0-5.95663,5.59324,5.59324,0,0,0-3.64959-1.0447H221.9711v8.05722h4.26957A5.5504,5.5504,0,0,0,229.89026,109.12318Z" fill="#ff2600"/><path d="M236.39082,100.65274h6.5421a9.56461,9.56461,0,0,1,4.49935,1.0217,7.45779,7.45779,0,0,1,3.02993,2.84616,8.584,8.584,0,0,1,0,8.3327,7.45426,7.45426,0,0,1-3.02993,2.84649,9.56067,9.56067,0,0,1-4.49935,1.02138h-6.5421Zm6.45038,14.59932a7.787,7.787,0,0,0,3.69561-.83793,6.08642,6.08642,0,0,0,2.45628-2.31823,7.09781,7.09781,0,0,0,0-6.81757,6.0893,6.0893,0,0,0-2.45628-2.31855,7.79451,7.79451,0,0,0-3.69561-.83793h-4.7515v13.13021Z" fill="#ff2600"/></svg>